<?xml version="1.0" encoding="utf-8"?>
<svg viewBox="0 0 24 24" xmlns="http://www.w3.org/2000/svg">
  <path d="M 7.978 8.347 C 8.53 8.347 8.978 8.795 8.978 9.347 L 8.978 11.347 L 10.978 11.347 C 11.748 11.347 12.229 12.181 11.844 12.847 C 11.665 13.157 11.335 13.347 10.978 13.347 L 8.978 13.347 L 8.978 15.347 C 8.978 16.117 8.145 16.598 7.478 16.214 C 7.168 16.035 6.978 15.705 6.978 15.347 L 6.978 13.347 L 4.978 13.347 C 4.208 13.347 3.727 12.514 4.112 11.847 C 4.29 11.538 4.621 11.347 4.978 11.347 L 6.978 11.347 L 6.978 9.347 C 6.978 8.795 7.426 8.347 7.978 8.347 Z M 15.978 10.347 C 15.978 11.502 17.228 12.224 18.228 11.647 C 18.692 11.379 18.978 10.883 18.978 10.347 C 18.978 9.193 17.728 8.471 16.728 9.048 C 16.264 9.316 15.978 9.812 15.978 10.347 Z M 13.978 14.347 C 13.978 15.502 15.228 16.224 16.228 15.647 C 16.692 15.379 16.978 14.883 16.978 14.347 C 16.978 13.193 15.728 12.471 14.728 13.048 C 14.264 13.316 13.978 13.812 13.978 14.347 Z" style="fill: rgb(176, 179, 184);" transform="matrix(1, 0, 0, 1, 7.105427357601002e-15, 3.552713678800501e-15)"/>
  <path d="M 0.478 11.347 C 0.478 7.481 3.612 4.347 7.478 4.347 L 16.478 4.347 C 20.344 4.347 23.478 7.481 23.478 11.347 L 23.478 13.347 C 23.478 17.213 20.344 20.347 16.478 20.347 L 7.478 20.347 C 3.612 20.347 0.478 17.213 0.478 13.347 L 0.478 11.347 Z M 7.478 6.347 C 4.716 6.347 2.478 8.586 2.478 11.347 L 2.478 13.347 C 2.478 16.109 4.716 18.347 7.478 18.347 L 16.478 18.347 C 19.239 18.347 21.478 16.109 21.478 13.347 L 21.478 11.347 C 21.478 8.586 19.239 6.347 16.478 6.347 L 7.478 6.347 Z" style="fill: rgb(176, 179, 184);" transform="matrix(1, 0, 0, 1, 7.105427357601002e-15, 3.552713678800501e-15)"/>
</svg>