<?xml version="1.0" encoding="utf-8"?>
<svg viewBox="0 0 24 24" xmlns="http://www.w3.org/2000/svg">
  <path d="M 12.175 6.149 C 9.096 6.149 7.171 9.483 8.711 12.149 C 9.425 13.387 10.746 14.149 12.175 14.149 C 15.254 14.149 17.179 10.816 15.639 8.149 C 14.924 6.912 13.604 6.149 12.175 6.149 Z M 10.175 10.149 C 10.175 8.61 11.842 7.648 13.175 8.417 C 13.794 8.775 14.175 9.435 14.175 10.149 C 14.175 11.689 12.508 12.651 11.175 11.882 C 10.556 11.524 10.175 10.864 10.175 10.149 Z" style="fill: rgb(176, 179, 184);" transform="matrix(1, 0, 0, 1, 7.105427357601002e-15, 3.552713678800501e-15)"/>
  <path d="M 0.675 12.149 C 0.675 5.798 5.824 0.649 12.175 0.649 C 18.526 0.649 23.675 5.798 23.675 12.149 C 23.675 18.5 18.526 23.649 12.175 23.649 C 5.824 23.649 0.675 18.5 0.675 12.149 Z M 2.885 10.149 C 2.603 11.466 2.603 12.826 2.885 14.142 L 3.185 14.149 C 4.724 14.146 5.683 12.477 4.909 11.145 C 4.551 10.527 3.889 10.148 3.175 10.149 L 2.885 10.149 Z M 3.548 8.166 C 6.614 8.45 8.223 11.946 6.445 14.46 C 5.77 15.414 4.711 16.025 3.548 16.132 C 4.026 17.166 4.686 18.105 5.496 18.905 C 6.232 16.96 8.095 15.672 10.175 15.672 L 14.175 15.672 C 16.255 15.672 18.118 16.96 18.854 18.905 C 19.664 18.105 20.324 17.166 20.802 16.132 C 17.736 15.849 16.126 12.352 17.905 9.839 C 18.58 8.885 19.638 8.274 20.802 8.166 C 19.248 4.803 15.88 2.649 12.175 2.649 C 8.469 2.649 5.102 4.803 3.548 8.166 Z M 21.675 12.149 C 21.675 11.475 21.604 10.802 21.463 10.142 L 21.198 10.149 L 21.175 10.149 C 19.635 10.146 18.669 11.81 19.435 13.145 C 19.791 13.765 20.45 14.148 21.165 14.149 L 21.465 14.142 C 21.603 13.499 21.675 12.832 21.675 12.149 Z M 12.175 21.649 C 13.93 21.652 15.65 21.167 17.145 20.247 C 16.933 18.77 15.668 17.672 14.175 17.672 L 10.175 17.672 C 8.682 17.672 7.416 18.77 7.205 20.247 C 8.699 21.167 10.42 21.652 12.175 21.649 Z" style="fill: rgb(176, 179, 184);" transform="matrix(1, 0, 0, 1, 7.105427357601002e-15, 3.552713678800501e-15)"/>
</svg>