<?xml version="1.0" encoding="utf-8"?>
<svg viewBox="0 0 24 24" xmlns="http://www.w3.org/2000/svg">
  <path d="M 9.15 23.3 L 8.09 23.3 C 6.736 23.3 5.619 23.3 4.735 23.181 C 3.807 23.056 2.988 22.785 2.332 22.128 C 1.676 21.472 1.404 20.653 1.279 19.725 C 1.16 18.841 1.16 17.725 1.16 16.37 L 1.16 12.07 C 1.16 10.332 1.158 9.123 1.688 8.064 C 2.218 7.004 3.185 6.28 4.576 5.238 L 6.81 3.563 C 7.924 2.728 8.83 2.048 9.625 1.586 C 10.454 1.103 11.252 0.8 12.16 0.8 C 13.068 0.8 13.867 1.103 14.697 1.586 C 15.492 2.048 16.397 2.728 17.512 3.563 L 19.744 5.238 C 21.135 6.28 22.103 7.004 22.632 8.064 C 23.162 9.123 23.162 10.332 23.16 12.07 L 23.16 16.37 C 23.16 17.725 23.16 18.841 23.041 19.725 C 22.917 20.653 22.645 21.472 21.989 22.128 C 21.332 22.785 20.513 23.056 19.585 23.181 C 18.701 23.3 17.585 23.3 16.231 23.3 L 9.15 23.3 Z M 7.96 5.2 L 5.96 6.7 C 4.31 7.938 3.77 8.374 3.477 8.958 C 3.185 9.542 3.16 10.237 3.16 12.3 L 3.16 16.3 C 3.16 17.742 3.162 18.724 3.261 19.459 C 3.356 20.165 3.523 20.492 3.746 20.714 C 3.969 20.937 4.296 21.104 5.002 21.199 C 5.736 21.298 6.718 21.299 8.16 21.299 L 8.16 14.8 C 8.16 13.419 9.279 12.3 10.66 12.3 L 13.66 12.3 C 15.041 12.3 16.16 13.419 16.16 14.8 L 16.16 21.3 C 17.603 21.3 18.584 21.298 19.319 21.199 C 20.025 21.104 20.352 20.937 20.574 20.714 C 20.797 20.492 20.964 20.164 21.059 19.458 C 21.158 18.724 21.16 17.742 21.16 16.3 L 21.16 12.3 C 21.16 10.237 21.135 9.542 20.843 8.958 C 20.552 8.374 20.011 7.938 18.36 6.7 L 16.36 5.2 C 15.186 4.319 14.373 3.711 13.69 3.314 C 13.03 2.93 12.585 2.8 12.16 2.8 C 11.735 2.8 11.29 2.93 10.63 3.314 C 9.948 3.711 9.135 4.319 7.96 5.2 Z M 14.16 21.3 L 14.16 14.8 C 14.16 14.524 13.936 14.3 13.66 14.3 L 10.66 14.3 C 10.384 14.3 10.16 14.524 10.16 14.8 L 10.16 21.3 L 14.16 21.3 Z" style="fill: rgb(176, 179, 184);" transform="matrix(1, 0, 0, 1, 7.105427357601002e-15, 3.552713678800501e-15)"/>
</svg>