<?xml version="1.0" encoding="utf-8"?>
<svg viewBox="0 0 24 24" xmlns="http://www.w3.org/2000/svg">
  <path d="M 11.879 0.977 C 9.57 0.977 8.126 3.477 9.281 5.477 C 9.817 6.405 10.807 6.977 11.879 6.977 C 14.188 6.977 15.632 4.477 14.477 2.477 C 13.941 1.548 12.951 0.977 11.879 0.977 Z M 3.879 8.977 C 1.57 8.977 0.126 11.477 1.281 13.477 C 1.817 14.405 2.807 14.977 3.879 14.977 C 6.188 14.977 7.632 12.477 6.477 10.477 C 5.941 9.548 4.951 8.977 3.879 8.977 Z M 11.879 8.977 C 9.57 8.977 8.126 11.477 9.281 13.477 C 9.817 14.405 10.807 14.977 11.879 14.977 C 14.188 14.977 15.632 12.477 14.477 10.477 C 13.941 9.548 12.951 8.977 11.879 8.977 Z M 19.879 8.977 C 17.57 8.977 16.126 11.477 17.281 13.477 C 17.817 14.405 18.807 14.977 19.879 14.977 C 22.188 14.977 23.632 12.477 22.477 10.477 C 21.941 9.548 20.951 8.977 19.879 8.977 Z M 19.879 0.977 C 17.57 0.977 16.126 3.477 17.281 5.477 C 17.817 6.405 18.807 6.977 19.879 6.977 C 22.188 6.977 23.632 4.477 22.477 2.477 C 21.941 1.548 20.951 0.977 19.879 0.977 Z M 3.879 0.977 C 1.57 0.977 0.126 3.477 1.281 5.477 C 1.817 6.405 2.807 6.977 3.879 6.977 C 6.188 6.977 7.632 4.477 6.477 2.477 C 5.941 1.548 4.951 0.977 3.879 0.977 Z M 11.879 16.977 C 9.57 16.977 8.126 19.477 9.281 21.477 C 9.817 22.405 10.807 22.977 11.879 22.977 C 14.188 22.977 15.632 20.477 14.477 18.477 C 13.941 17.548 12.951 16.977 11.879 16.977 Z M 19.879 16.977 C 17.57 16.977 16.126 19.477 17.281 21.477 C 17.817 22.405 18.807 22.977 19.879 22.977 C 22.188 22.977 23.632 20.477 22.477 18.477 C 21.941 17.548 20.951 16.977 19.879 16.977 Z M 3.879 16.977 C 1.57 16.977 0.126 19.477 1.281 21.477 C 1.817 22.405 2.807 22.977 3.879 22.977 C 6.188 22.977 7.632 20.477 6.477 18.477 C 5.941 17.548 4.951 16.977 3.879 16.977 Z" style="fill: rgb(228, 230, 235);"/>
</svg>