<?xml version="1.0" encoding="utf-8"?>
<svg viewBox="0 0 24 24" xmlns="http://www.w3.org/2000/svg">
  <path d="M 2.879 9.771 C 2.879 2.843 10.379 -1.487 16.379 1.977 C 19.164 3.585 20.879 6.556 20.879 9.771 L 20.879 12.698 C 20.879 14.388 21.354 16.043 22.249 17.476 C 22.861 18.455 22.183 19.73 21.029 19.77 C 21.012 19.771 20.994 19.771 20.977 19.771 L 16.352 19.771 C 15.973 23.215 12.009 24.956 9.216 22.907 C 8.2 22.161 7.544 21.024 7.406 19.771 L 2.781 19.771 C 1.626 19.771 0.905 18.521 1.482 17.521 C 1.491 17.506 1.5 17.491 1.509 17.476 C 2.404 16.044 2.879 14.39 2.879 12.701 L 2.879 9.771 Z M 9.429 19.771 C 9.812 21.657 12.093 22.421 13.535 21.147 C 13.942 20.787 14.221 20.304 14.329 19.771 L 9.429 19.771 Z" style="fill: rgb(228, 230, 235);"/>
</svg>