<svg width="15" height="15" viewBox="0 0 15 15" fill="none" xmlns="http://www.w3.org/2000/svg">
<g clip-path="url(#clip0_72_624)">
<path d="M14.8169 13.9331L11.0862 10.2025C12.1029 8.95912 12.6027 7.37256 12.4824 5.77098C12.3621 4.16939 11.6307 2.67533 10.4397 1.59783C9.24871 0.52032 7.6891 -0.0581913 6.08351 -0.0180464C4.47792 0.0220985 2.94917 0.677828 1.81349 1.81351C0.677813 2.94919 0.0220832 4.47793 -0.0180617 6.08353C-0.0582065 7.68912 0.520305 9.24872 1.59781 10.4397C2.67532 11.6308 4.16938 12.3621 5.77096 12.4824C7.37254 12.6027 8.95911 12.1029 10.2025 11.0863L13.9331 14.8169C14.051 14.9307 14.2089 14.9937 14.3727 14.9923C14.5366 14.9909 14.6934 14.9251 14.8092 14.8093C14.9251 14.6934 14.9909 14.5366 14.9923 14.3728C14.9937 14.2089 14.9307 14.051 14.8169 13.9331ZM6.24998 11.25C5.26108 11.25 4.29438 10.9568 3.47213 10.4073C2.64989 9.85794 2.00903 9.07705 1.63059 8.16342C1.25215 7.24979 1.15313 6.24445 1.34606 5.27455C1.53899 4.30464 2.01519 3.41373 2.71445 2.71447C3.41371 2.0152 4.30463 1.539 5.27453 1.34607C6.24444 1.15315 7.24977 1.25216 8.1634 1.6306C9.07703 2.00904 9.85793 2.6499 10.4073 3.47215C10.9567 4.29439 11.25 5.26109 11.25 6.25C11.2485 7.57563 10.7212 8.84653 9.78387 9.78389C8.84651 10.7212 7.57561 11.2485 6.24998 11.25Z" fill="#AEB1B5"/>
</g>
<defs>
<clipPath id="clip0_72_624">
<rect width="15" height="15" fill="white"/>
</clipPath>
</defs>
</svg>