<?xml version="1.0" encoding="utf-8"?>
<svg viewBox="0 0 24 24" xmlns="http://www.w3.org/2000/svg">
  <path d="M 10.973 7.432 C 10.306 7.052 9.477 7.533 9.477 8.3 L 9.477 12.3 C 9.477 13.068 10.306 13.549 10.973 13.168 L 14.473 11.168 C 15.141 10.786 15.145 9.824 14.48 9.436 C 14.477 9.435 14.475 9.434 14.473 9.432 L 10.973 7.432 Z" style="fill: rgb(176, 179, 184);" transform="matrix(1, 0, 0, 1, 7.105427357601002e-15, 3.552713678800501e-15)"/>
  <path d="M 14.55 1.3 L 9.404 1.3 C 7.58 1.3 6.111 1.3 4.954 1.455 C 3.754 1.617 2.744 1.962 1.941 2.765 C 1.139 3.566 0.794 4.577 0.632 5.777 C 0.477 6.934 0.477 8.403 0.477 10.227 L 0.477 10.373 C 0.477 12.197 0.477 13.666 0.632 14.823 C 0.794 16.023 1.139 17.033 1.942 17.835 C 2.744 18.638 3.755 18.983 4.955 19.145 C 6.111 19.3 7.58 19.3 9.404 19.3 L 14.55 19.3 C 16.374 19.3 17.843 19.3 19 19.145 C 20.2 18.983 21.21 18.638 22.012 17.835 C 22.815 17.033 23.16 16.022 23.322 14.822 C 23.477 13.666 23.477 12.197 23.477 10.373 L 23.477 10.227 C 23.477 8.403 23.477 6.934 23.322 5.777 C 23.16 4.577 22.815 3.567 22.012 2.764 C 21.21 1.962 20.199 1.617 18.999 1.455 C 17.843 1.3 16.374 1.3 14.55 1.3 Z M 3.357 4.179 C 3.726 3.809 4.244 3.569 5.222 3.438 C 6.228 3.302 7.563 3.3 9.477 3.3 L 14.477 3.3 C 16.391 3.3 17.726 3.302 18.733 3.438 C 19.711 3.569 20.229 3.81 20.598 4.178 C 20.968 4.548 21.208 5.066 21.34 6.044 C 21.475 7.051 21.477 8.386 21.477 10.3 C 21.477 12.214 21.475 13.549 21.34 14.556 C 21.208 15.534 20.967 16.052 20.598 16.421 C 20.229 16.791 19.711 17.031 18.733 17.163 C 17.726 17.298 16.391 17.3 14.477 17.3 L 9.477 17.3 C 7.563 17.3 6.228 17.298 5.221 17.163 C 4.243 17.031 3.725 16.79 3.356 16.421 C 2.986 16.052 2.746 15.534 2.615 14.556 C 2.479 13.549 2.477 12.214 2.477 10.3 C 2.477 8.386 2.479 7.051 2.615 6.044 C 2.746 5.066 2.987 4.548 3.355 4.179 L 3.357 4.179 Z M 7.977 20.8 C 7.207 20.8 6.726 21.634 7.111 22.3 C 7.289 22.61 7.62 22.8 7.977 22.8 L 15.977 22.8 C 16.747 22.8 17.228 21.967 16.843 21.3 C 16.664 20.991 16.334 20.8 15.977 20.8 L 7.977 20.8 Z" style="fill: rgb(176, 179, 184);" transform="matrix(1, 0, 0, 1, 7.105427357601002e-15, 3.552713678800501e-15)"/>
</svg>